<svg xmlns="http://www.w3.org/2000/svg" width="996" height="996" viewBox="0 0 996 996" version="1.1"><path d="M 532 55.030 C 468.176 60.960, 407.444 80.276, 357.633 110.487 C 351.656 114.112, 346.256 117.173, 345.633 117.289 C 344.733 117.457, 341.964 134.522, 342.627 135.810 C 342.715 135.981, 347.897 133.413, 354.143 130.105 C 386.431 113.005, 422.643 102.590, 470 96.787 C 484.356 95.027, 546.347 95.058, 563 96.832 C 581.719 98.827, 607.643 102.751, 624.496 106.141 C 632.743 107.800, 639.592 109.258, 639.714 109.381 C 639.837 109.504, 630.614 110.131, 619.219 110.774 C 595.536 112.111, 582.763 113.828, 565 118.063 C 550.971 121.409, 534 126.788, 534 127.890 C 534 128.288, 537.032 130.839, 540.738 133.557 C 572.954 157.190, 606.058 194.815, 628.233 233 C 666.368 298.670, 681.553 378.782, 669.933 453 C 651.664 569.697, 575.986 667.567, 468.529 713.465 C 405.728 740.289, 336.008 747.650, 270 734.426 C 175.725 715.540, 95.630 659.384, 45.462 577 C 39.234 566.772, 26.748 542.126, 23.026 532.714 C 21.768 529.532, 20.623 527.057, 20.482 527.214 C 19.960 527.797, 24.126 551.661, 26.108 559.444 C 35.342 595.699, 52.402 631.079, 75.318 661.500 C 90.618 681.812, 116.667 707.356, 139.949 724.878 C 182.336 756.781, 229.424 775.369, 289 783.718 C 307.231 786.273, 364.809 786.234, 384 783.653 C 435.396 776.742, 482.329 762.060, 539.750 734.931 C 546.488 731.747, 552 729.499, 552 729.934 C 552 731.733, 528.733 752.834, 516 762.583 C 456.907 807.822, 381.242 834.657, 292 842.023 C 273.891 843.517, 230.646 843.490, 208.714 841.971 C 198.932 841.293, 190.739 840.928, 190.507 841.159 C 189.411 842.256, 225.350 868.229, 243.063 879.142 C 291.833 909.187, 350.385 932.456, 406 943.893 C 441.228 951.138, 468.332 953.479, 508.171 952.718 C 544.901 952.017, 568.120 949.211, 602 941.381 C 711.341 916.109, 811.184 849.951, 879.507 757.500 C 930.347 688.705, 960.755 608.697, 969.200 521.500 C 971.101 501.867, 970.816 452.107, 968.687 432 C 964.606 393.457, 957.076 358.234, 945.491 323.500 C 936.009 295.068, 923.472 266.942, 925.509 278.670 C 929.729 302.961, 931.340 364.235, 928.567 395 C 925.761 426.139, 921.390 452.529, 914.480 480.043 C 894.956 557.783, 855.003 631.965, 797.901 696.500 C 787.758 707.962, 760.584 735.213, 750.900 743.632 C 737.042 755.680, 732.894 759.140, 723.744 766.288 C 710.865 776.350, 688.403 791.947, 673.500 801.177 C 660.797 809.045, 650 815.246, 650 814.674 C 650 814.485, 654.153 810.993, 659.229 806.915 C 693.267 779.569, 732.291 740.935, 759.143 708 C 845.359 602.256, 878.198 482.729, 855.426 357.563 C 847.199 312.342, 829.481 262.035, 806.273 218 C 795.774 198.079, 776.853 167.796, 765.163 152.204 L 762.692 148.908 768.096 151.016 C 800.007 163.463, 855.443 191.996, 891.642 214.604 C 900.072 219.869, 907.398 224.025, 907.924 223.839 C 909.832 223.162, 879.262 187.307, 865.843 174.483 C 796.014 107.749, 716.925 69.608, 622 56.890 C 609.691 55.241, 599.809 54.745, 574 54.480 C 556.125 54.297, 537.225 54.544, 532 55.030 M 403.978 378.750 L 395.500 387.500 404.250 379.022 C 412.377 371.148, 413.456 370, 412.728 370 C 412.578 370, 408.641 373.938, 403.978 378.750" stroke="none" fill="#f97d21" fill-rule="evenodd"/><path d="M 265.020 31.528 C 272.905 42.990, 276.280 55.024, 276.370 72 C 276.517 100.057, 268.822 118.827, 238.035 165.505 C 218.371 195.317, 207.149 215.844, 202.731 230.079 C 198.215 244.628, 197.770 248.547, 198.952 263.353 C 202.519 308.020, 187.776 347.397, 154.579 381.872 C 138.396 398.678, 119.478 413.207, 97.784 425.492 C 79.201 436.014, 76.101 438.101, 74.004 441.493 C 71.363 445.767, 71.433 452.183, 74.184 457.934 C 77.940 465.786, 92.661 479.262, 110.507 491.186 C 131.055 504.915, 170.105 527.228, 171.371 525.963 C 171.643 525.690, 172.163 522.775, 172.526 519.484 C 173.489 510.760, 173.521 510.585, 174.397 509.166 C 174.839 508.451, 174.934 507.601, 174.609 507.275 C 174.284 506.950, 174.405 506.193, 174.878 505.592 C 175.352 504.991, 176.300 502.700, 176.984 500.500 C 178.243 496.455, 187.005 476.923, 187.975 476 C 188.716 475.295, 190.886 471.783, 191.683 470 C 192.052 469.175, 192.635 468.275, 192.979 468 C 193.322 467.725, 195.155 465.250, 197.051 462.500 C 198.948 459.750, 201.007 457.050, 201.626 456.500 C 202.245 455.950, 203.145 454.760, 203.626 453.857 C 206.775 447.936, 233.566 420.842, 244.025 413 C 245.859 411.625, 248.516 409.494, 249.929 408.266 C 254.072 404.664, 254.520 404.327, 256.735 403.142 C 257.895 402.521, 259.442 401.444, 260.172 400.749 C 262.120 398.896, 278.599 388, 279.454 388 C 279.856 388, 281.265 387.150, 282.585 386.112 C 283.905 385.074, 290.726 381.847, 297.742 378.941 C 308.934 374.306, 311.549 373.603, 319.040 373.216 C 327.151 372.798, 327.739 372.910, 330.761 375.452 C 335.055 379.065, 336.015 383.196, 335.015 393.757 C 333.342 411.428, 329.223 419.443, 306.144 449.934 C 300.967 456.773, 295.113 465.548, 293.133 469.434 C 289.776 476.025, 289.533 477.122, 289.517 485.749 L 289.500 494.998 286.237 495.613 C 282.675 496.284, 273.965 495.452, 267.212 493.795 C 264.853 493.217, 262.660 493.006, 262.339 493.328 C 261.506 494.160, 273.531 508.305, 281.643 516.035 C 294.195 527.997, 306.170 533.900, 319.614 534.751 C 328.892 535.339, 336.039 533.955, 342.562 530.309 L 346.940 527.863 351.548 531.033 C 365.789 540.831, 384.635 543.087, 398.287 536.629 L 403.074 534.365 394.787 530.197 C 388.991 527.282, 384.227 523.846, 378.939 518.765 C 372.392 512.474, 368 507.191, 368 505.607 C 368 505.353, 370.501 505.403, 373.558 505.718 C 376.742 506.047, 381.547 505.736, 384.808 504.990 C 391.177 503.533, 398.222 499.869, 395.927 499.206 C 389.852 497.453, 383.481 493.438, 379.114 488.611 C 377.676 487.021, 375.997 485.201, 375.382 484.564 C 374.767 483.927, 373.949 482.415, 373.565 481.203 C 373.180 479.992, 372.521 479, 372.099 479 C 371.678 479, 371.283 478.438, 371.221 477.750 C 371.159 477.063, 370.125 473.800, 368.922 470.500 C 365.150 460.149, 364.869 450.051, 367.993 437.031 C 368.624 434.397, 369.245 431.625, 369.371 430.871 C 370.192 425.975, 383.396 401.901, 388 396.908 C 388.825 396.013, 390.836 393.530, 392.470 391.390 C 395.525 387.388, 403.460 379.448, 432.650 351.185 C 448.153 336.174, 452.938 331.035, 457 325.031 C 457.825 323.811, 459.288 321.887, 460.250 320.754 C 461.212 319.621, 462 318.088, 462 317.347 C 462 316.606, 462.441 316, 462.981 316 C 463.520 316, 464.244 314.875, 464.589 313.500 C 464.934 312.125, 465.535 311, 465.924 311 C 466.314 311, 467.685 308.412, 468.972 305.250 C 470.260 302.087, 471.397 299.383, 471.499 299.241 C 472.042 298.485, 498.904 310.311, 505.177 314.066 C 535.281 332.090, 555.490 353.621, 570.354 383.505 C 587.473 417.924, 592.071 454.021, 583.854 489.500 C 579.427 508.619, 568.479 531.608, 555.264 549.534 C 547.203 560.469, 526.868 580.989, 513.999 591.173 C 505.343 598.024, 485.391 612, 484.267 612 C 484.011 612, 479.684 614.408, 474.651 617.350 C 438.822 638.298, 390.874 653.922, 345.043 659.583 C 328.513 661.625, 285.976 661.065, 268.500 658.575 C 242.862 654.923, 205.995 645.541, 189.500 638.472 C 187.850 637.765, 181.775 635.292, 176 632.978 C 164.870 628.517, 136.214 614.417, 129.500 610.097 C 127.300 608.682, 124.375 606.943, 123 606.234 C 119.913 604.641, 118.733 603.908, 107.500 596.607 C 102.550 593.389, 98.350 590.362, 98.167 589.878 C 97.983 589.395, 97.196 589, 96.417 589 C 95.637 589, 95 588.550, 95 588 C 95 587.450, 94.518 587, 93.929 587 C 93.339 587, 92.250 586.437, 91.509 585.750 C 90.767 585.063, 88.988 583.600, 87.555 582.500 C 86.122 581.400, 84.399 580.034, 83.725 579.464 C 83.051 578.894, 80.700 577.094, 78.500 575.464 C 76.300 573.834, 73.994 572.050, 73.376 571.500 C 72.758 570.950, 70.094 568.700, 67.455 566.500 C 57.786 558.438, 53.236 554.173, 37.309 538.250 C 28.369 529.313, 20.818 522, 20.528 522 C 18.280 522, 23.293 534.837, 33.414 555 C 69.119 626.134, 129.358 682.451, 203.500 714.012 C 314.649 761.327, 443.442 745.164, 540.300 671.746 C 603.184 624.081, 648.673 552.811, 665.876 475 C 683.951 393.245, 670.291 305.427, 628.233 233 C 606.058 194.815, 572.954 157.190, 540.738 133.557 C 537.032 130.839, 534 128.288, 534 127.890 C 534 126.788, 550.971 121.409, 565 118.063 C 582.763 113.828, 595.536 112.111, 619.219 110.774 C 630.614 110.131, 639.837 109.504, 639.714 109.381 C 639.592 109.258, 632.743 107.800, 624.496 106.141 C 607.643 102.751, 581.719 98.827, 563 96.832 C 546.347 95.058, 484.356 95.027, 470 96.787 C 422.707 102.583, 386.422 113.009, 354.257 130.045 C 348.073 133.320, 342.894 136, 342.748 136 C 342.602 136, 342.966 131.613, 343.556 126.250 C 345.710 106.686, 343.589 90.974, 337.070 78.201 C 333.931 72.051, 332.789 70.435, 326.181 62.780 C 318.680 54.092, 307.052 46.118, 291 38.654 C 281.817 34.384, 263.675 27, 262.366 27 C 262.112 27, 263.306 29.038, 265.020 31.528" stroke="none" fill="#04a9db" fill-rule="evenodd"/></svg>